# xmcd
#
# Track frame offsets:
#	150
#	16133
#	32893
#	47995
#	63397
#	81923
#	100032
#	115386
#	131483
#	146908
#	165475
#	181370
#	199800
#	214719
#
# Disc length: 3136 seconds
#
# Revision: 1
# Processed by: cddbd v1.5.2PL0 Copyright (c) Steve Scherf et al.
# Submitted via: audiograbber 1.83.01
#
DISCID=c70c3e0e
DTITLE=compilation - SD153
DYEAR=2007
DGENRE=Karaoke
TTITLE0=Toby Keith - High Maintenance Woman 
TTITLE1=Taylor Swift - Teardrops On My Guitar 
TTITLE2=Montgomery Gentry - Lucky Man 
TTITLE3=Jason Aldean - Johnny Cash 
TTITLE4=Kellie Pickler - I Wonder 
TTITLE5=Dusty Drake - Say Yes 
TTITLE6=Craig Morgan - Tough 
TTITLE7=Cole Deggs and The Lonesome - I Got More 
TTITLE8=Sarah Buxton - That Kind Of Day 
TTITLE9=Randy Rogers Band - One More Goodbye 
TTITLE10=Laura Bryna - I Dont Have A Thing To Wear 
TTITLE11=Little Texas - Missing Years 
TTITLE12=Ty Herndon - Right About Now 
TTITLE13=Little Big Town - A Little More You 
EXTD=
EXTT0=
EXTT1=
EXTT2=
EXTT3=
EXTT4=
EXTT5=
EXTT6=
EXTT7=
EXTT8=
EXTT9=
EXTT10=
EXTT11=
EXTT12=
EXTT13=
PLAYORDER=
